<svg xmlns="http://www.w3.org/2000/svg" width="555.275" height="37.055" viewBox="0 0 555.275 37.055"><defs><style>.a{fill:#fff;}</style></defs><path class="a" d="M956.768,41.273a2.942,2.942,0,0,0-1.713-.466H953.69V44.73h1.138a5.634,5.634,0,0,0,1.011-.092,2.315,2.315,0,0,0,.837-.327,1.7,1.7,0,0,0,.558-.61,2.053,2.053,0,0,0,.2-.95,1.665,1.665,0,0,0-.671-1.478Z" transform="translate(-543.281 -25.196)"/><path class="a" d="M635.62,44.207c-.161-.536-.318-1.077-.466-1.617h-.044c-.148.514-.31,1.042-.488,1.578s-.357,1.085-.549,1.639l-.593,1.713h3.278l-.589-1.7C635.96,45.28,635.786,44.748,635.62,44.207Z" transform="translate(-362.663 -26.203)"/><path class="a" d="M894.95,44.207c-.166-.536-.323-1.077-.471-1.617h-.039c-.153.514-.314,1.042-.488,1.578s-.362,1.085-.554,1.639l-.589,1.713h3.261l-.593-1.7C895.29,45.28,895.112,44.748,894.95,44.207Z" transform="translate(-508.941 -26.203)"/><path class="a" d="M275.4,44.207c-.166-.536-.318-1.077-.471-1.617h0c-.148.514-.314,1.042-.488,1.578s-.362,1.085-.554,1.639L273.3,47.52h3.261l-.632-1.7C275.741,45.28,275.563,44.748,275.4,44.207Z" transform="translate(-159.499 -26.203)"/><path class="a" d="M866.108,40.8H864.7v3.854h1.1a3.308,3.308,0,0,0,1.8-.436,1.639,1.639,0,0,0,.711-1.491,1.818,1.818,0,0,0-.567-1.408,2.4,2.4,0,0,0-1.643-.519Z" transform="translate(-493.085 -25.193)"/><path class="a" d="M547.426,40.8H546v3.854h1.1a3.309,3.309,0,0,0,1.8-.436,1.639,1.639,0,0,0,.7-1.491,1.8,1.8,0,0,0-.558-1.408A2.38,2.38,0,0,0,547.426,40.8Z" transform="translate(-313.318 -25.194)"/><path class="a" d="M697.353,41.922a4.155,4.155,0,0,0-2.956-1.029H693.09v8.523h.959a6.452,6.452,0,0,0,1.661-.2,3.488,3.488,0,0,0,2.4-2.123,5.637,5.637,0,0,0,.366-2.18A3.95,3.95,0,0,0,697.353,41.922Z" transform="translate(-396.286 -25.243)"/><path class="a" d="M518,41.39a2.951,2.951,0,0,0-1.09-.828,3.418,3.418,0,0,0-1.334-.262,3.008,3.008,0,0,0-1.308.283,2.942,2.942,0,0,0-1.059.846,4.219,4.219,0,0,0-.715,1.417,6.728,6.728,0,0,0-.266,2,6.4,6.4,0,0,0,.275,1.988,4.21,4.21,0,0,0,.745,1.408,2.964,2.964,0,0,0,1.09.833,3.265,3.265,0,0,0,2.642,0,2.773,2.773,0,0,0,1.068-.833,4.177,4.177,0,0,0,.715-1.408,7.623,7.623,0,0,0-.009-4.024A4.154,4.154,0,0,0,518,41.39Z" transform="translate(-294.268 -24.911)"/><path class="a" d="M403.23,44.207c-.166-.536-.323-1.077-.471-1.617h-.039c-.153.514-.314,1.042-.488,1.578s-.362,1.085-.554,1.639l-.589,1.713h3.261l-.61-1.7C403.549,45.28,403.374,44.748,403.23,44.207Z" transform="translate(-231.58 -26.203)"/><path class="a" d="M490.073,41.273a2.943,2.943,0,0,0-1.713-.466H487V44.73h1.142a5.584,5.584,0,0,0,1.007-.092,2.314,2.314,0,0,0,.837-.327,1.7,1.7,0,0,0,.558-.61,1.949,1.949,0,0,0,.2-.95,1.661,1.661,0,0,0-.676-1.478Z" transform="translate(-280.039 -25.196)"/><path class="a" d="M340.27,41.39a2.951,2.951,0,0,0-1.09-.828,3.418,3.418,0,0,0-1.334-.262,3.008,3.008,0,0,0-1.308.283,2.943,2.943,0,0,0-1.059.846,4.219,4.219,0,0,0-.715,1.417,6.727,6.727,0,0,0-.266,2,6.4,6.4,0,0,0,.275,1.988,4.212,4.212,0,0,0,.745,1.408,2.964,2.964,0,0,0,1.09.833,3.265,3.265,0,0,0,2.642,0,2.773,2.773,0,0,0,1.068-.833,4.177,4.177,0,0,0,.715-1.408,7.622,7.622,0,0,0-.009-4.024A4.155,4.155,0,0,0,340.27,41.39Z" transform="translate(-194.017 -24.911)"/><path class="a" d="M53.48,44.207c-.166-.536-.318-1.077-.471-1.617H52.97c-.148.514-.314,1.042-.488,1.578s-.362,1.085-.554,1.652l-.589,1.7H54.6l-.593-1.7C53.807,45.28,53.642,44.748,53.48,44.207Z" transform="translate(-34.299 -26.203)"/><path class="a" d="M1070.69,41.39a2.951,2.951,0,0,0-1.09-.828,3.44,3.44,0,0,0-1.338-.262,3.051,3.051,0,0,0-1.308.283,2.99,2.99,0,0,0-1.059.846,4.287,4.287,0,0,0-.711,1.417,6.722,6.722,0,0,0-.266,2,6.4,6.4,0,0,0,.275,1.988,4.211,4.211,0,0,0,.745,1.408,2.965,2.965,0,0,0,1.09.833,3.265,3.265,0,0,0,2.642,0,2.772,2.772,0,0,0,1.068-.833,4.3,4.3,0,0,0,.715-1.408,6.672,6.672,0,0,0,.266-1.988,6.568,6.568,0,0,0-.279-2.036,4.181,4.181,0,0,0-.75-1.417Z" transform="translate(-606.02 -24.911)"/><path class="a" d="M25.607,5,12.25,42.055H554.173L567.525,5Zm8.614,26.331-1-2.956H28.659l-1,2.956H24.744l4.8-12.817h2.895l4.747,12.817Zm15.432,0H47.108L42.988,25.1c-.174-.275-.349-.554-.519-.846s-.331-.575-.48-.846-.283-.523-.4-.745a5.44,5.44,0,0,1-.244-.562H41.31c.07.937.1,1.84.113,2.7s0,1.744,0,2.616v3.915H38.807V18.514h2.542l4.425,6.766c.3.462.571.915.824,1.356a11,11,0,0,1,.541,1.033h.039c-.078-.872-.122-1.744-.122-2.637V18.514h2.576Zm10.292,0h-2.79V18.514h2.79Zm13.68,0h-2.55L66.96,25.1c-.179-.275-.349-.554-.519-.846s-.331-.575-.48-.846-.283-.523-.4-.745a4.657,4.657,0,0,1-.257-.562h-.039c.065.937.1,1.84.109,2.7s0,1.744,0,2.616v3.915H62.762V18.514h2.563l4.42,6.766c.3.462.575.915.828,1.356a11,11,0,0,1,.541,1.033h.039q-.122-1.308-.122-2.637V18.514h2.576ZM85.2,20.694H81.573V31.331h-2.79V20.694H75.234v-2.18H85.2ZM95.231,31.331h-8.44V18.514h8.361v2.18H89.585v2.938H94.62v2.119H89.585v3.444h5.628Zm8.845,0-2.467-4.726h-1.487v4.726H97.349V18.514h4.869a5.371,5.371,0,0,1,1.909.314,3.924,3.924,0,0,1,1.373.872,3.431,3.431,0,0,1,.828,1.26,4.329,4.329,0,0,1,.275,1.561,3.723,3.723,0,0,1-.828,2.415,3.64,3.64,0,0,1-.78.737,5.754,5.754,0,0,1-.872.475l3.139,5.231Zm15.755,0h-2.546l-4.12-6.234c-.174-.275-.349-.554-.519-.846s-.327-.575-.48-.846-.283-.523-.4-.745a5.406,5.406,0,0,1-.253-.562h-.044c.07.937.1,1.84.113,2.7s0,1.744,0,2.616v3.915h-2.616V18.514h2.563l4.425,6.766c.3.462.575.915.824,1.356s.436.785.541,1.029h.044a26.39,26.39,0,0,1-.122-2.637V18.514h2.572Zm11.129,0-1-2.956H125.38l-1,2.956h-2.916l4.8-12.838h2.895L133.9,31.331Zm12.206-10.637h-3.631V31.331h-2.79V20.694H133.2v-2.18h9.97Zm4.359,10.637h-2.794V18.514h2.794ZM162,27.7a6.064,6.064,0,0,1-1.347,2.079,5.877,5.877,0,0,1-2.027,1.308,6.9,6.9,0,0,1-2.537.436,7.145,7.145,0,0,1-2.528-.436,5.48,5.48,0,0,1-2.005-1.242,6,6,0,0,1-1.308-2.079,7.794,7.794,0,0,1-.48-2.825,7.573,7.573,0,0,1,.488-2.781,6.151,6.151,0,0,1,1.347-2.1,5.916,5.916,0,0,1,2.027-1.308,7.411,7.411,0,0,1,5.066,0,5.593,5.593,0,0,1,2,1.308A6,6,0,0,1,162,22.15a7.847,7.847,0,0,1,.48,2.834,7.372,7.372,0,0,1-.488,2.742Zm13.553,3.627H173l-4.12-6.234c-.174-.275-.349-.554-.519-.846s-.331-.575-.48-.846-.283-.523-.4-.745a5.442,5.442,0,0,1-.257-.562h-.039c.07.937.1,1.84.113,2.7s0,1.744,0,2.616v3.915h-2.616V18.514h2.546l4.46,6.744c.3.462.571.915.824,1.356a11.005,11.005,0,0,1,.541,1.029h.039c-.078-.872-.122-1.744-.122-2.616V18.514h2.589Zm11.129,0-1-2.956H181.11l-1,2.956H177.2l4.8-12.838h2.895l4.747,12.838Zm12.559,0h-7.982V18.514h2.794V29.151h5.179Zm14.674-2.18A3.439,3.439,0,0,1,213,30.393a4.56,4.56,0,0,1-1.53.837,6.731,6.731,0,0,1-2.14.305,9.486,9.486,0,0,1-4.22-.937l.632-2.058a10.462,10.462,0,0,0,1.7.663,6.539,6.539,0,0,0,1.744.235,2.751,2.751,0,0,0,1.63-.4,1.382,1.382,0,0,0,.436-1.587,1.173,1.173,0,0,0-.336-.436,3.052,3.052,0,0,0-.663-.436,6.539,6.539,0,0,0-1.09-.436l-1.081-.366a8.305,8.305,0,0,1-1.308-.571,4.359,4.359,0,0,1-1.011-.754,3.139,3.139,0,0,1-.65-1.011,3.6,3.6,0,0,1-.235-1.356,3.819,3.819,0,0,1,.305-1.539,3.313,3.313,0,0,1,.95-1.212,4.246,4.246,0,0,1,1.491-.793,6.539,6.539,0,0,1,2-.288,9.116,9.116,0,0,1,2.2.244,8.5,8.5,0,0,1,1.722.632l-.632,2.079a9.259,9.259,0,0,0-1.613-.619,5.528,5.528,0,0,0-1.508-.214,2.585,2.585,0,0,0-1.517.384,1.225,1.225,0,0,0-.541,1.042,1.181,1.181,0,0,0,.471,1.02,5.323,5.323,0,0,0,1.508.671l1.221.388a5.545,5.545,0,0,1,2.4,1.447,3.261,3.261,0,0,1,.872,2.3,3.832,3.832,0,0,1-.3,1.543ZM225.432,24.3a3.7,3.7,0,0,1-1.112,1.308,4.878,4.878,0,0,1-1.622.793,7.568,7.568,0,0,1-2,.257h-1.487v4.665h-2.794V18.514h4.508a7.228,7.228,0,0,1,2.027.262,4.5,4.5,0,0,1,1.548.776,3.536,3.536,0,0,1,.99,1.234,3.762,3.762,0,0,1,.344,1.661,4.1,4.1,0,0,1-.41,1.875Zm14.046,3.383a6.063,6.063,0,0,1-1.347,2.079,5.876,5.876,0,0,1-2.027,1.308,6.975,6.975,0,0,1-2.537.436,7.145,7.145,0,0,1-2.528-.436,5.471,5.471,0,0,1-2-1.282,6,6,0,0,1-1.308-2.079,7.8,7.8,0,0,1-.48-2.825,7.572,7.572,0,0,1,.488-2.781A6.151,6.151,0,0,1,229.09,20a5.916,5.916,0,0,1,2.027-1.308,7.411,7.411,0,0,1,5.066-.022,5.593,5.593,0,0,1,2,1.308,6,6,0,0,1,1.308,2.088,7.847,7.847,0,0,1,.48,2.834,7.494,7.494,0,0,1-.5,2.781Zm9.438,3.627-2.467-4.726h-1.517v4.747h-2.768V18.514h4.869a5.345,5.345,0,0,1,1.905.314,3.923,3.923,0,0,1,1.378.872,3.488,3.488,0,0,1,.824,1.26,4.328,4.328,0,0,1,.275,1.561,3.8,3.8,0,0,1-.231,1.378,3.953,3.953,0,0,1-.584,1.038,3.74,3.74,0,0,1-.793.737,5.752,5.752,0,0,1-.846.475l3.139,5.231Zm13.566-10.615h-3.631V31.331h-2.79V20.694h-3.549v-2.18h9.97Zm10.027,8.479a3.452,3.452,0,0,1-.92,1.242,4.359,4.359,0,0,1-1.53.837,6.687,6.687,0,0,1-2.136.305,9.486,9.486,0,0,1-4.22-.937l.632-2.079a10.42,10.42,0,0,0,1.709.663,6.539,6.539,0,0,0,1.744.235,2.772,2.772,0,0,0,1.635-.4,1.365,1.365,0,0,0,.458-1.587,1.221,1.221,0,0,0-.336-.436,3.227,3.227,0,0,0-.663-.436,6.73,6.73,0,0,0-1.094-.436l-1.059-.366a8.3,8.3,0,0,1-1.308-.571,4.36,4.36,0,0,1-1.007-.754,3.083,3.083,0,0,1-.654-1.011,3.509,3.509,0,0,1-.231-1.356,3.819,3.819,0,0,1,.305-1.539,3.278,3.278,0,0,1,.907-1.212,4.189,4.189,0,0,1,1.487-.793,6.666,6.666,0,0,1,2.027-.288,8.963,8.963,0,0,1,2.18.244,8.248,8.248,0,0,1,1.713.632l-.623,2.092a9.215,9.215,0,0,0-1.609-.619,5.7,5.7,0,0,0-1.508-.214,2.59,2.59,0,0,0-1.521.384,1.229,1.229,0,0,0-.541,1.042,1.181,1.181,0,0,0,.471,1.02,5.323,5.323,0,0,0,1.508.671l1.225.388a5.6,5.6,0,0,1,2.411,1.447,3.261,3.261,0,0,1,.872,2.3,3.924,3.924,0,0,1-.323,1.53Zm15.511,2.18-1-2.956h-4.6l-1,2.956H278.5l4.8-12.838h2.895l4.752,12.838Zm15.432,0H300.9L296.808,25.1c-.179-.275-.353-.554-.523-.846s-.327-.575-.48-.846l-.4-.745a5.407,5.407,0,0,1-.253-.562h-.044c.07.937.109,1.835.113,2.7v6.539H292.61V18.514h2.546l4.425,6.766c.3.462.575.915.828,1.356a9.8,9.8,0,0,1,.514,1.033h.044a26.39,26.39,0,0,1-.122-2.637V18.514h2.589Zm13.37-3.684a5.781,5.781,0,0,1-1.548,2.079,6.225,6.225,0,0,1-2.293,1.216,9.879,9.879,0,0,1-2.786.384h-3.923V18.514h4.486a8.9,8.9,0,0,1,2.707.384,5.894,5.894,0,0,1,2.088,1.164A5.231,5.231,0,0,1,316.922,22a6.975,6.975,0,0,1,.479,2.681,7.246,7.246,0,0,1-.6,2.986Zm10.131-.754a3.841,3.841,0,0,0,.846,1.4,3.487,3.487,0,0,0,1.264.824,4.307,4.307,0,0,0,1.556.275,6.731,6.731,0,0,0,1.591-.161,3.988,3.988,0,0,0,1.12-.436l.571,2.04a5.392,5.392,0,0,1-1.386.506,8.95,8.95,0,0,1-2.18.227,7.537,7.537,0,0,1-2.672-.436,5.85,5.85,0,0,1-3.488-3.426,8.1,8.1,0,0,1-.009-5.515,5.759,5.759,0,0,1,3.453-3.422,7.807,7.807,0,0,1,2.755-.488,7.939,7.939,0,0,1,2.149.244,7.438,7.438,0,0,1,1.378.532l-.615,2.053a6.692,6.692,0,0,0-1.173-.48,5.31,5.31,0,0,0-3.008.052,3.252,3.252,0,0,0-1.282.785,3.815,3.815,0,0,0-.872,1.386,6.77,6.77,0,0,0,0,4.054Zm19.617-.68a5.435,5.435,0,0,1-1.338,4.015,5.33,5.33,0,0,1-3.963,1.308,5.7,5.7,0,0,1-3.976-1.308,5.311,5.311,0,0,1-1.447-4.12V18.514h2.812V26.2a3.924,3.924,0,0,0,.641,2.419,2.376,2.376,0,0,0,1.975.8,2.18,2.18,0,0,0,1.914-.837,3.64,3.64,0,0,0,.593-2.18V18.514h2.794Zm10.763,5.1H349.36V18.514h2.812V29.151h5.179Zm8.719-10.637h-3.627V31.331h-2.794V20.694H356.1v-2.18h9.966Zm12.276,5.523a5.446,5.446,0,0,1-1.334,4.015,5.328,5.328,0,0,1-3.967,1.308,5.722,5.722,0,0,1-3.976-1.308,5.311,5.311,0,0,1-1.447-4.12v-7.6H370.4V26.2a3.923,3.923,0,0,0,.641,2.419,2.372,2.372,0,0,0,1.988.824,2.18,2.18,0,0,0,1.918-.837,3.666,3.666,0,0,0,.589-2.18V18.514h2.794Zm9.517,5.114-2.467-4.726h-1.491v4.726h-2.768V18.514h4.869a5.345,5.345,0,0,1,1.905.314,3.924,3.924,0,0,1,1.378.872,3.488,3.488,0,0,1,.828,1.26,4.33,4.33,0,0,1,.275,1.561,3.714,3.714,0,0,1-1.617,3.152,5.753,5.753,0,0,1-.837.475l3.139,5.231Zm13.226,0-1-2.956h-4.564l-1,2.956h-2.916l4.8-12.838h2.864L404,31.331Zm12.559,0h-7.973V18.514h2.794V29.151h5.188Zm15.258-7.01a3.784,3.784,0,0,1-1.112,1.308,4.878,4.878,0,0,1-1.639.772,7.568,7.568,0,0,1-2,.257h-1.465v4.665h-2.794V18.514h4.5a7.28,7.28,0,0,1,2.031.262,4.5,4.5,0,0,1,1.548.776,3.535,3.535,0,0,1,.99,1.234,3.762,3.762,0,0,1,.344,1.661,4.1,4.1,0,0,1-.4,1.875Zm12.86,7.01h-2.79V25.79h-4.874v5.541h-2.79V18.514h2.79v5.1h4.874v-5.1h2.79Zm11.252,0h-8.409V18.514h8.357v2.18h-5.563v2.938h5.053v2.119H447.4v3.444h5.624Zm12.965,0h-2.546L459.3,25.1c-.174-.275-.349-.554-.519-.846s-.331-.575-.48-.846-.283-.523-.4-.745a5.433,5.433,0,0,1-.257-.562h-.039c.07.937.1,1.84.113,2.7s0,1.744,0,2.616v3.915h-2.616V18.514h2.563l4.425,6.766c.3.462.571.915.824,1.356a11.016,11.016,0,0,1,.541,1.029h.039c-.078-.872-.122-1.744-.122-2.637V18.514h2.576ZM480.416,27.7a6.078,6.078,0,0,1-1.343,2.079,5.877,5.877,0,0,1-2.027,1.308,7.01,7.01,0,0,1-2.541.436,7.123,7.123,0,0,1-2.524-.436,5.546,5.546,0,0,1-2-1.282,6,6,0,0,1-1.308-2.079,7.7,7.7,0,0,1-.48-2.825,7.412,7.412,0,0,1,.488-2.781,6.151,6.151,0,0,1,1.347-2.1,5.915,5.915,0,0,1,2.027-1.308,7.411,7.411,0,0,1,5.066-.022,5.693,5.693,0,0,1,2,1.308,6,6,0,0,1,1.308,2.088,7.848,7.848,0,0,1,.48,2.834,7.41,7.41,0,0,1-.5,2.781Zm14.351,3.627q-.118-2.119-.244-4.237c-.083-1.412-.135-2.842-.161-4.281l-.022-1.67h-.052c-.179.745-.375,1.526-.58,2.341s-.405,1.526-.6,2.14l-1.814,5.706h-2.18l-1.857-5.724c-.231-.737-.436-1.508-.65-2.328s-.366-1.526-.488-2.136h-.061v1.539c0,.541-.03,1.068-.052,1.6s-.039,1.046-.061,1.556-.044.977-.07,1.4l-.244,4.093h-2.589l.915-12.817h3.527l1.835,5.85c.083.257.166.536.257.833s.17.6.253.9.157.593.222.872.122.549.166.8h.078c.044-.218.1-.475.166-.767s.144-.593.222-.907l.244-.915c.083-.3.157-.571.227-.815l1.774-5.85h3.54l.955,12.838Zm13.758,0h-8.418V18.514h8.357v2.18H502.9v2.938h5.035v2.119H502.9v3.444h5.624Zm12.965,0h-2.546l-4.12-6.234c-.174-.275-.349-.554-.519-.846s-.331-.575-.48-.846-.283-.523-.4-.745a5.446,5.446,0,0,1-.257-.562h-.039c.07.937.1,1.84.113,2.7s0,1.744,0,2.616v3.915h-2.616V18.514h2.546L517.6,25.28c.3.462.571.915.824,1.356a11.016,11.016,0,0,1,.541,1.029h.039c-.078-.872-.122-1.744-.122-2.637V18.514h2.589ZM535.942,27.7a6.078,6.078,0,0,1-1.343,2.079,5.876,5.876,0,0,1-2.027,1.308,7.01,7.01,0,0,1-2.542.436,7.124,7.124,0,0,1-2.524-.436,5.545,5.545,0,0,1-2-1.282A6.133,6.133,0,0,1,524.2,27.73a7.794,7.794,0,0,1-.479-2.825,7.411,7.411,0,0,1,.488-2.781,6.216,6.216,0,0,1,1.347-2.1,5.916,5.916,0,0,1,2.027-1.308,7.411,7.411,0,0,1,5.066-.022,5.692,5.692,0,0,1,2,1.308,5.933,5.933,0,0,1,1.308,2.088,7.847,7.847,0,0,1,.479,2.834,7.411,7.411,0,0,1-.5,2.781ZM549.5,31.331h-2.55L542.834,25.1c-.179-.275-.349-.554-.519-.846s-.331-.575-.479-.846-.283-.523-.4-.745a5.446,5.446,0,0,1-.257-.562h-.039c.065.937.1,1.835.113,2.7s0,1.744,0,2.616v3.915H538.64V18.514h2.55l4.42,6.766c.3.462.575.915.828,1.356a10.985,10.985,0,0,1,.541,1.029h.039a26.4,26.4,0,0,1-.122-2.637V18.514h2.589Z" transform="translate(-12.25 -5)"/><path class="a" d="M1198.055,41.39a2.953,2.953,0,0,0-1.09-.828,3.439,3.439,0,0,0-1.338-.262,3.007,3.007,0,0,0-1.308.283,2.955,2.955,0,0,0-1.064.846,4.29,4.29,0,0,0-.711,1.417,6.734,6.734,0,0,0-.266,2,6.4,6.4,0,0,0,.275,1.988,4.209,4.209,0,0,0,.745,1.408,2.964,2.964,0,0,0,1.09.833,3.265,3.265,0,0,0,2.642,0,2.772,2.772,0,0,0,1.068-.833,4.3,4.3,0,0,0,.715-1.408,7.593,7.593,0,0,0,0-4.024,4.162,4.162,0,0,0-.759-1.417Z" transform="translate(-677.859 -24.911)"/><path class="a" d="M215.184,40.8h-1.4v3.854h1.1a3.309,3.309,0,0,0,1.8-.436,1.626,1.626,0,0,0,.7-1.491,1.787,1.787,0,0,0-.558-1.408A2.4,2.4,0,0,0,215.184,40.8Z" transform="translate(-125.926 -25.193)"/></svg>