<?xml version="1.0" encoding="UTF-8" standalone="no"?>
<!-- Created with Inkscape (http://www.inkscape.org/) -->

<svg
   xmlns:dc="http://purl.org/dc/elements/1.1/"
   xmlns:cc="http://creativecommons.org/ns#"
   xmlns:rdf="http://www.w3.org/1999/02/22-rdf-syntax-ns#"
   xmlns:svg="http://www.w3.org/2000/svg"
   xmlns="http://www.w3.org/2000/svg"
   xmlns:sodipodi="http://sodipodi.sourceforge.net/DTD/sodipodi-0.dtd"
   xmlns:inkscape="http://www.inkscape.org/namespaces/inkscape"
   width="652.3446"
   height="177.43806"
   id="svg3047"
   version="1.1"
   inkscape:version="0.48.3.1 r9886"
   sodipodi:docname="Neues Dokument 2">
  <defs
     id="defs3049" />
  <sodipodi:namedview
     id="base"
     pagecolor="#ffffff"
     bordercolor="#666666"
     borderopacity="1.0"
     inkscape:pageopacity="0.0"
     inkscape:pageshadow="2"
     inkscape:zoom="0.35"
     inkscape:cx="99.02945"
     inkscape:cy="-11.280963"
     inkscape:document-units="px"
     inkscape:current-layer="layer1"
     showgrid="false"
     fit-margin-top="0"
     fit-margin-left="0"
     fit-margin-right="0"
     fit-margin-bottom="0"
     inkscape:window-width="1229"
     inkscape:window-height="1000"
     inkscape:window-x="51"
     inkscape:window-y="24"
     inkscape:window-maximized="1" />
  <metadata
     id="metadata3052">
    <rdf:RDF>
      <cc:Work
         rdf:about="">
        <dc:format>image/svg+xml</dc:format>
        <dc:type
           rdf:resource="http://purl.org/dc/dcmitype/StillImage" />
        <dc:title></dc:title>
      </cc:Work>
    </rdf:RDF>
  </metadata>
  <g
     inkscape:label="Ebene 1"
     inkscape:groupmode="layer"
     id="layer1"
     transform="translate(-250.97055,-343.64315)">
    <path
       inkscape:connector-curvature="0"
       style="fill:#005695;fill-rule:evenodd"
       id="path9471"
       d="m 766.54691,355.70424 c 0,-5.1477 -4.57277,-9.72494 -10.2954,-9.72494 l -14.30658,0 c -5.72263,0 -10.29987,4.57724 -10.29987,9.72494 l 0.57493,153.36122 c 0,5.14774 4.00231,9.72494 9.72494,9.72494 l 14.30658,0 c 5.72263,0 10.2954,-4.5772 10.2954,-9.72494 l 0,-153.36122 0,0 z"
       clip-rule="evenodd" />
    <path
       inkscape:connector-curvature="0"
       style="fill:#005695;fill-rule:evenodd"
       id="path9473"
       d="m 784.86466,360.28148 0,6.86803 c 0,3.42738 2.29082,5.71819 5.72263,5.71819 l 100.70767,0 c 4.58168,0 8.58399,-3.99787 8.58399,-8.57508 l 0,-12.02459 c 0,-4.57724 -4.00231,-9.15444 -8.58399,-8.57511 0,0 -97.28029,9.72494 -100.70767,10.29544 -3.43624,0 -5.72263,2.85688 -5.72263,6.29312 l 0,0 z"
       clip-rule="evenodd" />
    <path
       inkscape:connector-curvature="0"
       style="fill:#005695;fill-rule:evenodd"
       id="path9475"
       d="m 703.0319,518.7904 c -25.17691,0 -40.62891,-18.88378 -40.62891,-40.05398 l 0,-61.23306 -7.44295,0 c -3.43182,0 -6.86806,-3.43625 -6.86806,-6.86806 l 0,-10.30427 c 0,-3.99787 3.43181,-6.86802 6.86806,-6.86802 l 7.44295,0 0,-37.7632 c 0,-5.1477 4.00231,-9.7249 9.72494,-9.7249 l 14.30658,0 c 5.1477,0 9.15444,4.5772 9.15444,9.7249 l 0,37.7632 22.31559,0 c 4.00675,0 6.86806,2.86571 6.86806,6.86802 l 0,10.30427 c 0,3.42742 -2.85688,6.86806 -6.86806,6.86806 l -22.31559,0 0,56.65582 c 0,10.86593 6.86802,18.88381 18.88378,18.88381 l 2.29082,0 c 4.00674,0 7.44299,2.85689 7.44299,7.43852 l 0,10.87477 c 0,4.00674 -3.43182,7.43855 -7.44299,7.43855 l -13.73165,0 0,-0.004 z"
       clip-rule="evenodd" />
    <path
       inkscape:connector-curvature="0"
       style="fill:#005695;fill-rule:evenodd"
       id="path9477"
       d="m 531.3618,454.12997 c 0,-32.61547 -19.45429,-65.23094 -63.51944,-65.23094 -40.62891,0 -62.94452,32.03614 -62.94452,65.23094 0,35.47234 24.03151,66.95125 63.51502,66.95125 26.89725,0 53.21959,-13.73165 58.3673,-37.19267 0.57049,-2.85688 -1.71591,-7.43856 -5.72263,-7.43856 l -19.45429,0 c -3.43181,0 -6.29313,1.7115 -8.01346,4.57724 -5.72263,8.00902 -13.73166,12.01576 -25.17692,12.01576 -17.1679,0 -28.61316,-13.16558 -29.75857,-28.03826 l 81.82832,0 c 7.44739,0 10.87919,-4.0067 10.87919,-10.87476 l 0,0 z m -92.13259,-13.73165 c 1.14541,-14.30215 13.73166,-25.17695 28.61315,-25.17695 15.45199,0 28.03825,10.8748 29.75857,25.17695 l -58.37172,0 0,0 z"
       clip-rule="evenodd" />
    <path
       inkscape:connector-curvature="0"
       style="fill:#005695;fill-rule:evenodd"
       id="path9479"
       d="m 903.31516,454.12997 c 0,-32.61547 -19.45428,-65.23094 -63.51944,-65.23094 -40.62892,0 -62.94011,32.03614 -62.94011,65.23094 0,35.47234 24.03595,66.95125 63.51504,66.95125 26.89723,0 53.21517,-13.73165 58.3673,-37.19267 0.5749,-2.85688 -1.72035,-7.43856 -5.72263,-7.43856 l -19.45431,0 c -3.43182,0 -6.29313,1.7115 -8.01345,4.57724 -5.72263,8.00902 -13.73165,12.01576 -25.75184,12.01576 -16.59296,0 -28.03823,-13.16558 -29.18365,-28.03826 l 81.83276,0 c 7.43851,0 10.87033,-4.0067 10.87033,-10.87476 l 0,0 z M 811.187,440.39832 c 1.14099,-14.30215 13.72721,-25.17695 28.60872,-25.17695 15.452,0 28.04266,10.8748 29.18808,25.17695 l -57.7968,0 0,0 z"
       clip-rule="evenodd" />
    <path
       inkscape:connector-curvature="0"
       style="fill:#005695;fill-rule:evenodd"
       id="path9481"
       d="m 634.93526,347.69079 -264.37321,0 c -6.29312,0 -10.87035,5.15657 -10.87035,10.87477 l 0.5705,104.15279 c 0,0 -56.6514,-103.00297 -59.51271,-108.1595 -2.8569,-5.14773 -9.15444,-9.72494 -17.16347,-9.72494 l -21.74512,0 c -6.29313,0 -10.87035,5.15657 -10.87035,10.87477 l 0,152.21139 c 0,6.29752 4.57722,10.87476 10.87035,10.87476 l 13.73166,0 c 6.29313,0 10.87477,-4.57724 10.87477,-10.87476 l -0.57049,-106.43035 c 0,0 57.22189,103.57343 60.0832,107.58017 2.86132,5.7182 8.58395,9.72494 16.59298,9.72494 l 20.02921,0 c 6.29313,0 10.87035,-4.57724 10.87035,-10.87476 l 0,-134.46857 241.48268,0 c 4.00227,0 7.43852,-3.43625 7.43852,-7.43856 l 0,-10.87476 c 0,-4.01114 -3.43181,-7.44739 -7.43852,-7.44739 l 0,0 z"
       clip-rule="evenodd" />
    <path
       inkscape:connector-curvature="0"
       style="fill:#005695;fill-rule:evenodd"
       id="path9483"
       d="m 592.01549,414.06711 c 11.44526,0 20.02921,4.00675 23.46545,11.44527 1.14543,3.43624 4.00231,4.00674 8.01345,4.00674 l 16.02251,0 c 2.29081,0 5.72263,-2.29082 5.72263,-5.7182 0,-18.31332 -22.32003,-34.90628 -53.21961,-34.90628 -32.04496,0 -53.21516,15.44314 -53.21516,39.48349 0,18.88382 14.87707,29.75858 32.61547,34.90628 8.58394,1.72032 22.89051,5.14774 29.75414,7.43856 6.86806,1.72032 13.73164,4.0067 13.73164,10.30426 0,10.29544 -10.29983,13.15676 -22.31559,13.15676 -10.87476,0 -21.74511,-4.57724 -24.60643,-12.58626 -1.7159,-4.57724 -5.15213,-5.14774 -9.72936,-5.14774 l -16.02248,0 c -2.86131,0 -6.29312,2.85692 -6.29312,6.28874 l 0,2.29081 c 0,17.74279 24.03593,36.05168 57.22189,36.05168 22.89052,0 55.51042,-9.72494 55.51042,-40.63335 0,-18.31328 -12.02019,-30.89511 -32.04497,-36.04284 -7.44299,-1.72033 -25.75184,-6.86803 -29.75858,-7.44739 -7.44296,-2.29082 -14.30658,-4.5772 -14.30658,-10.2954 0,-9.72494 8.58395,-12.59513 19.45428,-12.59513 l 0,0 z"
       clip-rule="evenodd" />
  </g>
</svg>
