<svg id="Layer_1" data-name="Layer 1" xmlns="http://www.w3.org/2000/svg" viewBox="0 0 100 100"><defs><style>.cls-1{fill:#555;}</style></defs><title>facebook</title><path class="cls-1" d="M98.2,50.06c.29,25.82-21.13,48.63-49.05,48.17a48.24,48.24,0,1,1,2-96.46C77.77,2.37,98.5,24.42,98.2,50.06ZM54.47,65.41c0-4.71,0-9.41,0-14.12,0-1.08.3-1.53,1.46-1.49,2.09.07,4.2,0,6.3,0,.53,0,1,0,1.06-.76.23-2.75.46-5.49.72-8.24.08-.89-.28-1.15-1.13-1.13-2.41,0-4.82,0-7.23,0-.68,0-1.16-.14-1.15-.94,0-1.94-.08-3.89.06-5.83.15-2.27.91-2.89,3.19-2.93,1.72,0,3.43,0,5.14,0,.84,0,1.19-.27,1.18-1.14,0-2.73,0-5.45,0-8.17,0-.89-.38-1.13-1.2-1.12-3,0-6.07-.05-9.1.06A13.55,13.55,0,0,0,47,21.53c-3.37,2.08-4.4,5.38-4.54,9.07-.09,2.56,0,5.13,0,7.7,0,1-.27,1.48-1.38,1.42-1.39-.08-2.8,0-4.19,0-.7,0-1,.25-1,1,0,2.72,0,5.44,0,8.16,0,.84.35,1.09,1.12,1.07,1.21,0,2.41,0,3.62,0,1.79,0,1.79,0,1.79,1.81,0,9.25,0,18.5,0,27.76,0,1.12.33,1.47,1.46,1.45,3-.07,6.06,0,9.09,0,1.52,0,1.53,0,1.53-1.58Z"/></svg>