<svg id="Layer_1" data-name="Layer 1" xmlns="http://www.w3.org/2000/svg" viewBox="0 0 96.56 96.69"><defs><style>.cls-1{fill:#555;}</style></defs><title>tweeter</title><path class="cls-1" d="M49.92,98.35C23.24,98,1.64,77,1.72,49.88A48.14,48.14,0,0,1,50.13,1.65c26.44-.06,48.25,22,48.15,48.55A48.65,48.65,0,0,1,49.92,98.35ZM23.22,72.06c.3.92.92,1.06,1.43,1.31a36.11,36.11,0,0,0,28.12,1.68A35.45,35.45,0,0,0,76.38,42.54c.05-2.27.6-3.93,2.44-5.31a9.24,9.24,0,0,0,3.09-3.62c-2,.1-3.59,1.29-5.85.74a12.69,12.69,0,0,0,4.73-6.14c-1,.45-1.56.69-2.09.94-2.83,1.33-5.29,1.94-8.33-.38-3.74-2.84-8.28-2.63-12.42-.33a12,12,0,0,0-6.4,11c0,3.22,0,3.22-3.18,2.85l-1.09-.18A35.88,35.88,0,0,1,26.94,31c-1.5-1.61-1.88-1.53-2.45.62-1.26,4.69-.53,8.95,2.93,12.58.5.53,1.35.88,1.31,2.11a23.91,23.91,0,0,1-2.9-.68c-1.89-.73-2.08.23-1.77,1.68a12.68,12.68,0,0,0,3,5.86C28.74,55,31,56,33.24,57a3.2,3.2,0,0,1-2.81.78c-1.58,0-2.13.39-1.17,1.89a12.72,12.72,0,0,0,8,6,3.48,3.48,0,0,1,2.35.94C34.77,70.48,29.2,71.82,23.22,72.06Z" transform="translate(-1.72 -1.65)"/></svg>