<svg id="Layer_1" data-name="Layer 1" xmlns="http://www.w3.org/2000/svg" viewBox="0 0 97.19 97.22"><defs><style>.cls-1{fill:#555;}</style></defs><title>youtube</title><path class="cls-1" d="M50.41,1.37A48.61,48.61,0,1,1,1.81,50,48.78,48.78,0,0,1,50.41,1.37Zm27,48.41V39.18c-.07-4.1-2.31-6.58-6.36-7.1a136.89,136.89,0,0,0-15.14-.83,210.47,210.47,0,0,0-26.81.86,6.46,6.46,0,0,0-5.95,6.35q-.12,11.31,0,22.61A6.45,6.45,0,0,0,29,67.41a97.69,97.69,0,0,0,12,.83c9,.17,18,.22,27.06-.45a39.58,39.58,0,0,0,4.21-.48c3-.53,5.16-3.36,5.19-6.93S77.43,53.31,77.43,49.78Z" transform="translate(-1.81 -1.37)"/><path class="cls-1" d="M41.86,49.83q0-4.71,0-9.43c0-1.22.15-1.33,1.15-.75,5.54,3.19,11.08,6.41,16.63,9.59.82.48.66.81,0,1.21q-8.37,4.83-16.73,9.67c-.78.45-1,.23-1-.63C41.87,56.27,41.86,53.05,41.86,49.83Z" transform="translate(-1.81 -1.37)"/></svg>